<svg width="9" height="6" viewBox="0 0 9 6" fill="none" xmlns="http://www.w3.org/2000/svg">
<path d="M0.750111 0.625004C0.896144 0.624719 1.03767 0.675578 1.15011 0.768754L4.50011 3.56875L7.85636 0.868755C7.92029 0.816839 7.99385 0.778069 8.07281 0.754674C8.15178 0.731279 8.23458 0.72372 8.31648 0.732432C8.39837 0.741144 8.47773 0.765955 8.55001 0.805438C8.62228 0.844922 8.68604 0.8983 8.73761 0.962504C8.78953 1.02643 8.8283 1.09999 8.85169 1.17896C8.87509 1.25792 8.88265 1.34073 8.87393 1.42262C8.86522 1.50451 8.84041 1.58388 8.80093 1.65615C8.76144 1.72842 8.70807 1.79218 8.64386 1.84375L4.89386 4.8625C4.78203 4.95443 4.64175 5.00468 4.49699 5.00468C4.35222 5.00468 4.21194 4.95443 4.10011 4.8625L0.350111 1.7375C0.286825 1.68504 0.234511 1.6206 0.196165 1.54788C0.15782 1.47516 0.134197 1.3956 0.126649 1.31374C0.119102 1.23188 0.127779 1.14933 0.152182 1.07083C0.176585 0.992326 0.216234 0.919409 0.26886 0.856254C0.327019 0.784558 0.40034 0.726637 0.483549 0.686652C0.566759 0.646668 0.657794 0.625614 0.750111 0.625004Z" fill="#4F4F4F"/>
</svg>
